{"asset":{"version":"2.0","generator":"THREE.GLTFExporter r183"},"scenes":[{"name":"AuxScene","nodes":[0]}],"scene":0,"nodes":[{"matrix":[1,0,0,0,0,1,0,0,0,0,1,0,0,0.02,0,1],"children":[1,2,3,4,5,6,7,8,9,10,11,12,13,14,15,16,17,18,19,20,21,22,23,24,25,26,27,28,29,30,31,32]},{"matrix":[1,0,0,0,0,1,0,0,0,0,1,0,0,14,0,1],"extras":{"isWire":true},"mesh":0},{"matrix":[1,0,0,0,0,1,0,0,0,0,1,0,0,14,0,1],"extras":{"isSolid":true},"mesh":1},{"matrix":[1,0,0,0,0,1,0,0,0,0,1,0,0,14,0,1],"extras":{"isTexture":true},"mesh":2},{"matrix":[1,0,0,0,0,1,0,0,0,0,1,0,0,30.5,0,1],"extras":{"isWire":true},"mesh":3},{"matrix":[1,0,0,0,0,1,0,0,0,0,1,0,0,30.5,0,1],"extras":{"isSolid":true},"mesh":4},{"matrix":[1,0,0,0,0,1,0,0,0,0,1,0,0,30.5,0,1],"extras":{"isTexture":true},"mesh":5},{"matrix":[1,0,0,0,0,1,0,0,0,0,1,0,0,1.5,0,1],"extras":{"isWire":true},"mesh":6},{"matrix":[1,0,0,0,0,1,0,0,0,0,1,0,0,1.5,0,1],"extras":{"isSolid":true},"mesh":7},{"matrix":[1,0,0,0,0,1,0,0,0,0,1,0,0,1.5,0,1],"extras":{"isTexture":true},"mesh":8},{"extras":{"isWire":true},"mesh":9},{"extras":{"isWire":true},"mesh":10},{"extras":{"isWire":true},"mesh":11},{"extras":{"isWire":true},"mesh":12},{"extras":{"isWire":true},"mesh":13},{"extras":{"isWire":true},"mesh":14},{"extras":{"isWire":true},"mesh":15},{"extras":{"isWire":true},"mesh":16},{"extras":{"isWire":true},"mesh":17},{"extras":{"isWire":true},"mesh":18},{"extras":{"isWire":true},"mesh":19},{"extras":{"isWire":true},"mesh":20},{"extras":{"isWire":true},"mesh":21},{"extras":{"isWire":true},"mesh":22},{"extras":{"isWire":true},"mesh":23},{"extras":{"isWire":true},"mesh":24},{"extras":{"isWire":true},"mesh":25},{"extras":{"isWire":true},"mesh":26},{"extras":{"isWire":true},"mesh":27},{"extras":{"isWire":true},"mesh":28},{"extras":{"isWire":true},"mesh":29},{"extras":{"isWire":true},"mesh":30},{"extras":{"isWire":true},"mesh":31}],"bufferViews":[{"buffer":0,"byteOffset":0,"byteLength":288,"target":34962,"byteStride":12},{"buffer":0,"byteOffset":288,"byteLength":288,"target":34962,"byteStride":12},{"buffer":0,"byteOffset":576,"byteLength":288,"target":34962,"byteStride":12},{"buffer":0,"byteOffset":864,"byteLength":192,"target":34962,"byteStride":8},{"buffer":0,"byteOffset":1056,"byteLength":72,"target":34963},{"buffer":0,"byteOffset":1128,"byteLength":288,"target":34962,"byteStride":12},{"buffer":0,"byteOffset":1416,"byteLength":288,"target":34962,"byteStride":12},{"buffer":0,"byteOffset":1704,"byteLength":288,"target":34962,"byteStride":12},{"buffer":0,"byteOffset":1992,"byteLength":192,"target":34962,"byteStride":8},{"buffer":0,"byteOffset":2184,"byteLength":72,"target":34963},{"buffer":0,"byteOffset":2256,"byteLength":288,"target":34962,"byteStride":12},{"buffer":0,"byteOffset":2544,"byteLength":288,"target":34962,"byteStride":12},{"buffer":0,"byteOffset":2832,"byteLength":288,"target":34962,"byteStride":12},{"buffer":0,"byteOffset":3120,"byteLength":192,"target":34962,"byteStride":8},{"buffer":0,"byteOffset":3312,"byteLength":72,"target":34963},{"buffer":0,"byteOffset":3384,"byteLength":60,"target":34962,"byteStride":12},{"buffer":0,"byteOffset":3444,"byteLength":60,"target":34962,"byteStride":12},{"buffer":0,"byteOffset":3504,"byteLength":60,"target":34962,"byteStride":12},{"buffer":0,"byteOffset":3564,"byteLength":60,"target":34962,"byteStride":12},{"buffer":0,"byteOffset":3624,"byteLength":60,"target":34962,"byteStride":12},{"buffer":0,"byteOffset":3684,"byteLength":60,"target":34962,"byteStride":12},{"buffer":0,"byteOffset":3744,"byteLength":60,"target":34962,"byteStride":12},{"buffer":0,"byteOffset":3804,"byteLength":60,"target":34962,"byteStride":12},{"buffer":0,"byteOffset":3864,"byteLength":60,"target":34962,"byteStride":12},{"buffer":0,"byteOffset":3924,"byteLength":60,"target":34962,"byteStride":12},{"buffer":0,"byteOffset":3984,"byteLength":60,"target":34962,"byteStride":12},{"buffer":0,"byteOffset":4044,"byteLength":60,"target":34962,"byteStride":12},{"buffer":0,"byteOffset":4104,"byteLength":60,"target":34962,"byteStride":12},{"buffer":0,"byteOffset":4164,"byteLength":60,"target":34962,"byteStride":12},{"buffer":0,"byteOffset":4224,"byteLength":60,"target":34962,"byteStride":12},{"buffer":0,"byteOffset":4284,"byteLength":60,"target":34962,"byteStride":12},{"buffer":0,"byteOffset":4344,"byteLength":60,"target":34962,"byteStride":12},{"buffer":0,"byteOffset":4404,"byteLength":60,"target":34962,"byteStride":12},{"buffer":0,"byteOffset":4464,"byteLength":60,"target":34962,"byteStride":12},{"buffer":0,"byteOffset":4524,"byteLength":60,"target":34962,"byteStride":12},{"buffer":0,"byteOffset":4584,"byteLength":60,"target":34962,"byteStride":12},{"buffer":0,"byteOffset":4644,"byteLength":60,"target":34962,"byteStride":12},{"buffer":0,"byteOffset":4704,"byteLength":60,"target":34962,"byteStride":12}],"buffers":[{"byteLength":4764,"uri":"data:application/octet-stream;base64,"}],"accessors":[{"bufferView":0,"componentType":5126,"count":24,"max":[1.7999999523162842,14,1.7999999523162842],"min":[-1.7999999523162842,-14,-1.7999999523162842],"type":"VEC3"},{"bufferView":1,"componentType":5126,"count":24,"max":[1.7999999523162842,14,1.7999999523162842],"min":[-1.7999999523162842,-14,-1.7999999523162842],"type":"VEC3"},{"bufferView":2,"componentType":5126,"count":24,"max":[1,1,1],"min":[-1,-1,-1],"type":"VEC3"},{"bufferView":3,"componentType":5126,"count":24,"max":[1,1],"min":[0,0],"type":"VEC2"},{"bufferView":4,"componentType":5123,"count":36,"max":[23],"min":[0],"type":"SCALAR"},{"bufferView":5,"componentType":5126,"count":24,"max":[1.5,1.5,1.5],"min":[-1.5,-1.5,-1.5],"type":"VEC3"},{"bufferView":6,"componentType":5126,"count":24,"max":[1.5,1.5,1.5],"min":[-1.5,-1.5,-1.5],"type":"VEC3"},{"bufferView":7,"componentType":5126,"count":24,"max":[1,1,1],"min":[-1,-1,-1],"type":"VEC3"},{"bufferView":8,"componentType":5126,"count":24,"max":[1,1],"min":[0,0],"type":"VEC2"},{"bufferView":9,"componentType":5123,"count":36,"max":[23],"min":[0],"type":"SCALAR"},{"bufferView":10,"componentType":5126,"count":24,"max":[3,1.5,3],"min":[-3,-1.5,-3],"type":"VEC3"},{"bufferView":11,"componentType":5126,"count":24,"max":[3,1.5,3],"min":[-3,-1.5,-3],"type":"VEC3"},{"bufferView":12,"componentType":5126,"count":24,"max":[1,1,1],"min":[-1,-1,-1],"type":"VEC3"},{"bufferView":13,"componentType":5126,"count":24,"max":[1,1],"min":[0,0],"type":"VEC2"},{"bufferView":14,"componentType":5123,"count":36,"max":[23],"min":[0],"type":"SCALAR"},{"bufferView":15,"componentType":5126,"count":5,"max":[1.7999999523162842,1,1.7999999523162842],"min":[-1.7999999523162842,1,-1.7999999523162842],"type":"VEC3"},{"bufferView":16,"componentType":5126,"count":5,"max":[1.7999999523162842,2.200000047683716,1.7999999523162842],"min":[-1.7999999523162842,2.200000047683716,-1.7999999523162842],"type":"VEC3"},{"bufferView":17,"componentType":5126,"count":5,"max":[1.7999999523162842,3.4000000953674316,1.7999999523162842],"min":[-1.7999999523162842,3.4000000953674316,-1.7999999523162842],"type":"VEC3"},{"bufferView":18,"componentType":5126,"count":5,"max":[1.7999999523162842,4.599999904632568,1.7999999523162842],"min":[-1.7999999523162842,4.599999904632568,-1.7999999523162842],"type":"VEC3"},{"bufferView":19,"componentType":5126,"count":5,"max":[1.7999999523162842,5.800000190734863,1.7999999523162842],"min":[-1.7999999523162842,5.800000190734863,-1.7999999523162842],"type":"VEC3"},{"bufferView":20,"componentType":5126,"count":5,"max":[1.7999999523162842,7,1.7999999523162842],"min":[-1.7999999523162842,7,-1.7999999523162842],"type":"VEC3"},{"bufferView":21,"componentType":5126,"count":5,"max":[1.7999999523162842,8.199999809265137,1.7999999523162842],"min":[-1.7999999523162842,8.199999809265137,-1.7999999523162842],"type":"VEC3"},{"bufferView":22,"componentType":5126,"count":5,"max":[1.7999999523162842,9.399999618530273,1.7999999523162842],"min":[-1.7999999523162842,9.399999618530273,-1.7999999523162842],"type":"VEC3"},{"bufferView":23,"componentType":5126,"count":5,"max":[1.7999999523162842,10.600000381469727,1.7999999523162842],"min":[-1.7999999523162842,10.600000381469727,-1.7999999523162842],"type":"VEC3"},{"bufferView":24,"componentType":5126,"count":5,"max":[1.7999999523162842,11.800000190734863,1.7999999523162842],"min":[-1.7999999523162842,11.800000190734863,-1.7999999523162842],"type":"VEC3"},{"bufferView":25,"componentType":5126,"count":5,"max":[1.7999999523162842,13,1.7999999523162842],"min":[-1.7999999523162842,13,-1.7999999523162842],"type":"VEC3"},{"bufferView":26,"componentType":5126,"count":5,"max":[1.7999999523162842,14.199999809265137,1.7999999523162842],"min":[-1.7999999523162842,14.199999809265137,-1.7999999523162842],"type":"VEC3"},{"bufferView":27,"componentType":5126,"count":5,"max":[1.7999999523162842,15.399999618530273,1.7999999523162842],"min":[-1.7999999523162842,15.399999618530273,-1.7999999523162842],"type":"VEC3"},{"bufferView":28,"componentType":5126,"count":5,"max":[1.7999999523162842,16.600000381469727,1.7999999523162842],"min":[-1.7999999523162842,16.600000381469727,-1.7999999523162842],"type":"VEC3"},{"bufferView":29,"componentType":5126,"count":5,"max":[1.7999999523162842,17.799999237060547,1.7999999523162842],"min":[-1.7999999523162842,17.799999237060547,-1.7999999523162842],"type":"VEC3"},{"bufferView":30,"componentType":5126,"count":5,"max":[1.7999999523162842,19,1.7999999523162842],"min":[-1.7999999523162842,19,-1.7999999523162842],"type":"VEC3"},{"bufferView":31,"componentType":5126,"count":5,"max":[1.7999999523162842,20.200000762939453,1.7999999523162842],"min":[-1.7999999523162842,20.200000762939453,-1.7999999523162842],"type":"VEC3"},{"bufferView":32,"componentType":5126,"count":5,"max":[1.7999999523162842,21.399999618530273,1.7999999523162842],"min":[-1.7999999523162842,21.399999618530273,-1.7999999523162842],"type":"VEC3"},{"bufferView":33,"componentType":5126,"count":5,"max":[1.7999999523162842,22.600000381469727,1.7999999523162842],"min":[-1.7999999523162842,22.600000381469727,-1.7999999523162842],"type":"VEC3"},{"bufferView":34,"componentType":5126,"count":5,"max":[1.7999999523162842,23.799999237060547,1.7999999523162842],"min":[-1.7999999523162842,23.799999237060547,-1.7999999523162842],"type":"VEC3"},{"bufferView":35,"componentType":5126,"count":5,"max":[1.7999999523162842,25,1.7999999523162842],"min":[-1.7999999523162842,25,-1.7999999523162842],"type":"VEC3"},{"bufferView":36,"componentType":5126,"count":5,"max":[1.7999999523162842,26.200000762939453,1.7999999523162842],"min":[-1.7999999523162842,26.200000762939453,-1.7999999523162842],"type":"VEC3"},{"bufferView":37,"componentType":5126,"count":5,"max":[1.7999999523162842,27.399999618530273,1.7999999523162842],"min":[-1.7999999523162842,27.399999618530273,-1.7999999523162842],"type":"VEC3"}],"materials":[{"pbrMetallicRoughness":{"baseColorFactor":[1,1,1,0.28],"metallicFactor":0,"roughnessFactor":0.82},"alphaMode":"BLEND"},{"pbrMetallicRoughness":{"baseColorFactor":[1,1,1,0],"metallicFactor":0,"roughnessFactor":0.82},"alphaMode":"BLEND"},{"pbrMetallicRoughness":{"metallicFactor":0.12,"roughnessFactor":0.12}},{"pbrMetallicRoughness":{"baseColorFactor":[1,1,1,0.28],"metallicFactor":0,"roughnessFactor":0.82},"alphaMode":"BLEND"},{"pbrMetallicRoughness":{"baseColorFactor":[1,1,1,0],"metallicFactor":0,"roughnessFactor":0.82},"alphaMode":"BLEND"},{"pbrMetallicRoughness":{"metallicFactor":0.12,"roughnessFactor":0.12}},{"pbrMetallicRoughness":{"baseColorFactor":[1,1,1,0.28],"metallicFactor":0,"roughnessFactor":0.82},"alphaMode":"BLEND"},{"pbrMetallicRoughness":{"baseColorFactor":[1,1,1,0],"metallicFactor":0,"roughnessFactor":0.82},"alphaMode":"BLEND"},{"pbrMetallicRoughness":{"metallicFactor":0,"roughnessFactor":0.88}},{"pbrMetallicRoughness":{"baseColorFactor":[1,1,1,0.28],"metallicFactor":0,"roughnessFactor":0.82},"alphaMode":"BLEND"},{"pbrMetallicRoughness":{"baseColorFactor":[1,1,1,0.28],"metallicFactor":0,"roughnessFactor":0.82},"alphaMode":"BLEND"},{"pbrMetallicRoughness":{"baseColorFactor":[1,1,1,0.28],"metallicFactor":0,"roughnessFactor":0.82},"alphaMode":"BLEND"},{"pbrMetallicRoughness":{"baseColorFactor":[1,1,1,0.28],"metallicFactor":0,"roughnessFactor":0.82},"alphaMode":"BLEND"},{"pbrMetallicRoughness":{"baseColorFactor":[1,1,1,0.28],"metallicFactor":0,"roughnessFactor":0.82},"alphaMode":"BLEND"},{"pbrMetallicRoughness":{"baseColorFactor":[1,1,1,0.28],"metallicFactor":0,"roughnessFactor":0.82},"alphaMode":"BLEND"},{"pbrMetallicRoughness":{"baseColorFactor":[1,1,1,0.28],"metallicFactor":0,"roughnessFactor":0.82},"alphaMode":"BLEND"},{"pbrMetallicRoughness":{"baseColorFactor":[1,1,1,0.28],"metallicFactor":0,"roughnessFactor":0.82},"alphaMode":"BLEND"},{"pbrMetallicRoughness":{"baseColorFactor":[1,1,1,0.28],"metallicFactor":0,"roughnessFactor":0.82},"alphaMode":"BLEND"},{"pbrMetallicRoughness":{"baseColorFactor":[1,1,1,0.28],"metallicFactor":0,"roughnessFactor":0.82},"alphaMode":"BLEND"},{"pbrMetallicRoughness":{"baseColorFactor":[1,1,1,0.28],"metallicFactor":0,"roughnessFactor":0.82},"alphaMode":"BLEND"},{"pbrMetallicRoughness":{"baseColorFactor":[1,1,1,0.28],"metallicFactor":0,"roughnessFactor":0.82},"alphaMode":"BLEND"},{"pbrMetallicRoughness":{"baseColorFactor":[1,1,1,0.28],"metallicFactor":0,"roughnessFactor":0.82},"alphaMode":"BLEND"},{"pbrMetallicRoughness":{"baseColorFactor":[1,1,1,0.28],"metallicFactor":0,"roughnessFactor":0.82},"alphaMode":"BLEND"},{"pbrMetallicRoughness":{"baseColorFactor":[1,1,1,0.28],"metallicFactor":0,"roughnessFactor":0.82},"alphaMode":"BLEND"},{"pbrMetallicRoughness":{"baseColorFactor":[1,1,1,0.28],"metallicFactor":0,"roughnessFactor":0.82},"alphaMode":"BLEND"},{"pbrMetallicRoughness":{"baseColorFactor":[1,1,1,0.28],"metallicFactor":0,"roughnessFactor":0.82},"alphaMode":"BLEND"},{"pbrMetallicRoughness":{"baseColorFactor":[1,1,1,0.28],"metallicFactor":0,"roughnessFactor":0.82},"alphaMode":"BLEND"},{"pbrMetallicRoughness":{"baseColorFactor":[1,1,1,0.28],"metallicFactor":0,"roughnessFactor":0.82},"alphaMode":"BLEND"},{"pbrMetallicRoughness":{"baseColorFactor":[1,1,1,0.28],"metallicFactor":0,"roughnessFactor":0.82},"alphaMode":"BLEND"},{"pbrMetallicRoughness":{"baseColorFactor":[1,1,1,0.28],"metallicFactor":0,"roughnessFactor":0.82},"alphaMode":"BLEND"},{"pbrMetallicRoughness":{"baseColorFactor":[1,1,1,0.28],"metallicFactor":0,"roughnessFactor":0.82},"alphaMode":"BLEND"},{"pbrMetallicRoughness":{"baseColorFactor":[1,1,1,0.28],"metallicFactor":0,"roughnessFactor":0.82},"alphaMode":"BLEND"}],"meshes":[{"primitives":[{"mode":1,"attributes":{"POSITION":0},"material":0}]},{"primitives":[{"mode":4,"attributes":{"POSITION":1,"NORMAL":2,"TEXCOORD_0":3},"indices":4,"material":1}]},{"primitives":[{"mode":4,"attributes":{"POSITION":1,"NORMAL":2,"TEXCOORD_0":3},"indices":4,"material":2}]},{"primitives":[{"mode":1,"attributes":{"POSITION":5},"material":3}]},{"primitives":[{"mode":4,"attributes":{"POSITION":6,"NORMAL":7,"TEXCOORD_0":8},"indices":9,"material":4}]},{"primitives":[{"mode":4,"attributes":{"POSITION":6,"NORMAL":7,"TEXCOORD_0":8},"indices":9,"material":5}]},{"primitives":[{"mode":1,"attributes":{"POSITION":10},"material":6}]},{"primitives":[{"mode":4,"attributes":{"POSITION":11,"NORMAL":12,"TEXCOORD_0":13},"indices":14,"material":7}]},{"primitives":[{"mode":4,"attributes":{"POSITION":11,"NORMAL":12,"TEXCOORD_0":13},"indices":14,"material":8}]},{"primitives":[{"mode":3,"attributes":{"POSITION":15},"material":9}]},{"primitives":[{"mode":3,"attributes":{"POSITION":16},"material":10}]},{"primitives":[{"mode":3,"attributes":{"POSITION":17},"material":11}]},{"primitives":[{"mode":3,"attributes":{"POSITION":18},"material":12}]},{"primitives":[{"mode":3,"attributes":{"POSITION":19},"material":13}]},{"primitives":[{"mode":3,"attributes":{"POSITION":20},"material":14}]},{"primitives":[{"mode":3,"attributes":{"POSITION":21},"material":15}]},{"primitives":[{"mode":3,"attributes":{"POSITION":22},"material":16}]},{"primitives":[{"mode":3,"attributes":{"POSITION":23},"material":17}]},{"primitives":[{"mode":3,"attributes":{"POSITION":24},"material":18}]},{"primitives":[{"mode":3,"attributes":{"POSITION":25},"material":19}]},{"primitives":[{"mode":3,"attributes":{"POSITION":26},"material":20}]},{"primitives":[{"mode":3,"attributes":{"POSITION":27},"material":21}]},{"primitives":[{"mode":3,"attributes":{"POSITION":28},"material":22}]},{"primitives":[{"mode":3,"attributes":{"POSITION":29},"material":23}]},{"primitives":[{"mode":3,"attributes":{"POSITION":30},"material":24}]},{"primitives":[{"mode":3,"attributes":{"POSITION":31},"material":25}]},{"primitives":[{"mode":3,"attributes":{"POSITION":32},"material":26}]},{"primitives":[{"mode":3,"attributes":{"POSITION":33},"material":27}]},{"primitives":[{"mode":3,"attributes":{"POSITION":34},"material":28}]},{"primitives":[{"mode":3,"attributes":{"POSITION":35},"material":29}]},{"primitives":[{"mode":3,"attributes":{"POSITION":36},"material":30}]},{"primitives":[{"mode":3,"attributes":{"POSITION":37},"material":31}]}]}
