{"asset":{"version":"2.0","generator":"THREE.GLTFExporter r183"},"scenes":[{"name":"AuxScene","nodes":[0]}],"scene":0,"nodes":[{"matrix":[1,0,0,0,0,1,0,0,0,0,1,0,0,0.02,0,1],"children":[1,2,3,4,5,6,7,8,9,10,11,12,13,14,15,16,17,18,19]},{"matrix":[1,0,0,0,0,1,0,0,0,0,1,0,0,3,0,1],"extras":{"isWire":true},"mesh":0},{"matrix":[1,0,0,0,0,1,0,0,0,0,1,0,0,3,0,1],"extras":{"isSolid":true},"mesh":1},{"matrix":[1,0,0,0,0,1,0,0,0,0,1,0,0,3,0,1],"extras":{"isTexture":true},"mesh":2},{"matrix":[1,0,0,0,0,1,0,0,0,0,1,0,3.5,8.5,0,1],"extras":{"isWire":true},"mesh":3},{"matrix":[1,0,0,0,0,1,0,0,0,0,1,0,3.5,8.5,0,1],"extras":{"isSolid":true},"mesh":4},{"matrix":[1,0,0,0,0,1,0,0,0,0,1,0,3.5,8.5,0,1],"extras":{"isTexture":true},"mesh":5},{"matrix":[1,0,0,0,0,1,0,0,0,0,1,0,7.5,8.5,0,1],"extras":{"isWire":true},"mesh":6},{"matrix":[1,0,0,0,0,1,0,0,0,0,1,0,7.5,8.5,0,1],"extras":{"isSolid":true},"mesh":7},{"matrix":[1,0,0,0,0,1,0,0,0,0,1,0,7.5,8.5,0,1],"extras":{"isTexture":true},"mesh":8},{"matrix":[1,0,0,0,0,1,0,0,0,0,1,0,-4,3,0,1],"extras":{"isWire":true},"mesh":9},{"matrix":[1,0,0,0,0,1,0,0,0,0,1,0,-4,3,0,1],"extras":{"isSolid":true},"mesh":10},{"matrix":[1,0,0,0,0,1,0,0,0,0,1,0,-4,3,0,1],"extras":{"isTexture":true},"mesh":11},{"extras":{"isWire":true},"mesh":12},{"extras":{"isWire":true},"mesh":13},{"extras":{"isWire":true},"mesh":14},{"extras":{"isWire":true},"mesh":15},{"matrix":[1,0,0,0,0,1,0,0,0,0,1,0,0,1.5,0,1],"extras":{"isTexture":true},"mesh":16},{"matrix":[1,0,0,0,0,1,0,0,0,0,1,0,0,3,0,1],"extras":{"isTexture":true},"mesh":17},{"matrix":[1,0,0,0,0,1,0,0,0,0,1,0,0,4.5,0,1],"extras":{"isTexture":true},"mesh":18}],"bufferViews":[{"buffer":0,"byteOffset":0,"byteLength":288,"target":34962,"byteStride":12},{"buffer":0,"byteOffset":288,"byteLength":288,"target":34962,"byteStride":12},{"buffer":0,"byteOffset":576,"byteLength":288,"target":34962,"byteStride":12},{"buffer":0,"byteOffset":864,"byteLength":192,"target":34962,"byteStride":8},{"buffer":0,"byteOffset":1056,"byteLength":72,"target":34963},{"buffer":0,"byteOffset":1128,"byteLength":288,"target":34962,"byteStride":12},{"buffer":0,"byteOffset":1416,"byteLength":288,"target":34962,"byteStride":12},{"buffer":0,"byteOffset":1704,"byteLength":288,"target":34962,"byteStride":12},{"buffer":0,"byteOffset":1992,"byteLength":192,"target":34962,"byteStride":8},{"buffer":0,"byteOffset":2184,"byteLength":72,"target":34963},{"buffer":0,"byteOffset":2256,"byteLength":288,"target":34962,"byteStride":12},{"buffer":0,"byteOffset":2544,"byteLength":288,"target":34962,"byteStride":12},{"buffer":0,"byteOffset":2832,"byteLength":288,"target":34962,"byteStride":12},{"buffer":0,"byteOffset":3120,"byteLength":192,"target":34962,"byteStride":8},{"buffer":0,"byteOffset":3312,"byteLength":72,"target":34963},{"buffer":0,"byteOffset":3384,"byteLength":288,"target":34962,"byteStride":12},{"buffer":0,"byteOffset":3672,"byteLength":288,"target":34962,"byteStride":12},{"buffer":0,"byteOffset":3960,"byteLength":288,"target":34962,"byteStride":12},{"buffer":0,"byteOffset":4248,"byteLength":192,"target":34962,"byteStride":8},{"buffer":0,"byteOffset":4440,"byteLength":72,"target":34963},{"buffer":0,"byteOffset":4512,"byteLength":60,"target":34962,"byteStride":12},{"buffer":0,"byteOffset":4572,"byteLength":60,"target":34962,"byteStride":12},{"buffer":0,"byteOffset":4632,"byteLength":60,"target":34962,"byteStride":12},{"buffer":0,"byteOffset":4692,"byteLength":60,"target":34962,"byteStride":12},{"buffer":0,"byteOffset":4752,"byteLength":288,"target":34962,"byteStride":12},{"buffer":0,"byteOffset":5040,"byteLength":288,"target":34962,"byteStride":12},{"buffer":0,"byteOffset":5328,"byteLength":192,"target":34962,"byteStride":8},{"buffer":0,"byteOffset":5520,"byteLength":72,"target":34963},{"buffer":0,"byteOffset":5592,"byteLength":288,"target":34962,"byteStride":12},{"buffer":0,"byteOffset":5880,"byteLength":288,"target":34962,"byteStride":12},{"buffer":0,"byteOffset":6168,"byteLength":192,"target":34962,"byteStride":8},{"buffer":0,"byteOffset":6360,"byteLength":72,"target":34963},{"buffer":0,"byteOffset":6432,"byteLength":288,"target":34962,"byteStride":12},{"buffer":0,"byteOffset":6720,"byteLength":288,"target":34962,"byteStride":12},{"buffer":0,"byteOffset":7008,"byteLength":192,"target":34962,"byteStride":8},{"buffer":0,"byteOffset":7200,"byteLength":72,"target":34963}],"buffers":[{"byteLength":7272,"uri":"data:application/octet-stream;base64,"}],"accessors":[{"bufferView":0,"componentType":5126,"count":24,"max":[7,3,4],"min":[-7,-3,-4],"type":"VEC3"},{"bufferView":1,"componentType":5126,"count":24,"max":[7,3,4],"min":[-7,-3,-4],"type":"VEC3"},{"bufferView":2,"componentType":5126,"count":24,"max":[1,1,1],"min":[-1,-1,-1],"type":"VEC3"},{"bufferView":3,"componentType":5126,"count":24,"max":[1,1],"min":[0,0],"type":"VEC2"},{"bufferView":4,"componentType":5123,"count":36,"max":[23],"min":[0],"type":"SCALAR"},{"bufferView":5,"componentType":5126,"count":24,"max":[4.5,2.5,3],"min":[-4.5,-2.5,-3],"type":"VEC3"},{"bufferView":6,"componentType":5126,"count":24,"max":[4.5,2.5,3],"min":[-4.5,-2.5,-3],"type":"VEC3"},{"bufferView":7,"componentType":5126,"count":24,"max":[1,1,1],"min":[-1,-1,-1],"type":"VEC3"},{"bufferView":8,"componentType":5126,"count":24,"max":[1,1],"min":[0,0],"type":"VEC2"},{"bufferView":9,"componentType":5123,"count":36,"max":[23],"min":[0],"type":"SCALAR"},{"bufferView":10,"componentType":5126,"count":24,"max":[0.10000000149011612,2.5,3],"min":[-0.10000000149011612,-2.5,-3],"type":"VEC3"},{"bufferView":11,"componentType":5126,"count":24,"max":[0.10000000149011612,2.5,3],"min":[-0.10000000149011612,-2.5,-3],"type":"VEC3"},{"bufferView":12,"componentType":5126,"count":24,"max":[1,1,1],"min":[-1,-1,-1],"type":"VEC3"},{"bufferView":13,"componentType":5126,"count":24,"max":[1,1],"min":[0,0],"type":"VEC2"},{"bufferView":14,"componentType":5123,"count":36,"max":[23],"min":[0],"type":"SCALAR"},{"bufferView":15,"componentType":5126,"count":24,"max":[1.5,2,4],"min":[-1.5,-2,-4],"type":"VEC3"},{"bufferView":16,"componentType":5126,"count":24,"max":[1.5,2,4],"min":[-1.5,-2,-4],"type":"VEC3"},{"bufferView":17,"componentType":5126,"count":24,"max":[1,1,1],"min":[-1,-1,-1],"type":"VEC3"},{"bufferView":18,"componentType":5126,"count":24,"max":[1,1],"min":[0,0],"type":"VEC2"},{"bufferView":19,"componentType":5123,"count":36,"max":[23],"min":[0],"type":"SCALAR"},{"bufferView":20,"componentType":5126,"count":5,"max":[7,1.5,4],"min":[-7,1.5,-4],"type":"VEC3"},{"bufferView":21,"componentType":5126,"count":5,"max":[7,3,4],"min":[-7,3,-4],"type":"VEC3"},{"bufferView":22,"componentType":5126,"count":5,"max":[7,4.5,4],"min":[-7,4.5,-4],"type":"VEC3"},{"bufferView":23,"componentType":5126,"count":5,"max":[7,6,4],"min":[-7,6,-4],"type":"VEC3"},{"bufferView":24,"componentType":5126,"count":24,"max":[7.059999942779541,0.12999999523162842,4.059999942779541],"min":[-7.059999942779541,-0.12999999523162842,-4.059999942779541],"type":"VEC3"},{"bufferView":25,"componentType":5126,"count":24,"max":[1,1,1],"min":[-1,-1,-1],"type":"VEC3"},{"bufferView":26,"componentType":5126,"count":24,"max":[1,1],"min":[0,0],"type":"VEC2"},{"bufferView":27,"componentType":5123,"count":36,"max":[23],"min":[0],"type":"SCALAR"},{"bufferView":28,"componentType":5126,"count":24,"max":[7.059999942779541,0.12999999523162842,4.059999942779541],"min":[-7.059999942779541,-0.12999999523162842,-4.059999942779541],"type":"VEC3"},{"bufferView":29,"componentType":5126,"count":24,"max":[1,1,1],"min":[-1,-1,-1],"type":"VEC3"},{"bufferView":30,"componentType":5126,"count":24,"max":[1,1],"min":[0,0],"type":"VEC2"},{"bufferView":31,"componentType":5123,"count":36,"max":[23],"min":[0],"type":"SCALAR"},{"bufferView":32,"componentType":5126,"count":24,"max":[7.059999942779541,0.12999999523162842,4.059999942779541],"min":[-7.059999942779541,-0.12999999523162842,-4.059999942779541],"type":"VEC3"},{"bufferView":33,"componentType":5126,"count":24,"max":[1,1,1],"min":[-1,-1,-1],"type":"VEC3"},{"bufferView":34,"componentType":5126,"count":24,"max":[1,1],"min":[0,0],"type":"VEC2"},{"bufferView":35,"componentType":5123,"count":36,"max":[23],"min":[0],"type":"SCALAR"}],"materials":[{"pbrMetallicRoughness":{"baseColorFactor":[1,1,1,0.28],"metallicFactor":0,"roughnessFactor":0.82},"alphaMode":"BLEND"},{"pbrMetallicRoughness":{"baseColorFactor":[1,1,1,0],"metallicFactor":0,"roughnessFactor":0.82},"alphaMode":"BLEND"},{"pbrMetallicRoughness":{"metallicFactor":0,"roughnessFactor":0.88}},{"pbrMetallicRoughness":{"baseColorFactor":[1,1,1,0.28],"metallicFactor":0,"roughnessFactor":0.82},"alphaMode":"BLEND"},{"pbrMetallicRoughness":{"baseColorFactor":[1,1,1,0],"metallicFactor":0,"roughnessFactor":0.82},"alphaMode":"BLEND"},{"pbrMetallicRoughness":{"metallicFactor":0,"roughnessFactor":0.88}},{"pbrMetallicRoughness":{"baseColorFactor":[1,1,1,0.28],"metallicFactor":0,"roughnessFactor":0.82},"alphaMode":"BLEND"},{"pbrMetallicRoughness":{"baseColorFactor":[1,1,1,0],"metallicFactor":0,"roughnessFactor":0.82},"alphaMode":"BLEND"},{"pbrMetallicRoughness":{"metallicFactor":0,"roughnessFactor":0.88}},{"pbrMetallicRoughness":{"baseColorFactor":[1,1,1,0.28],"metallicFactor":0,"roughnessFactor":0.82},"alphaMode":"BLEND"},{"pbrMetallicRoughness":{"baseColorFactor":[1,1,1,0],"metallicFactor":0,"roughnessFactor":0.82},"alphaMode":"BLEND"},{"pbrMetallicRoughness":{"metallicFactor":0,"roughnessFactor":0.88}},{"pbrMetallicRoughness":{"baseColorFactor":[1,1,1,0.28],"metallicFactor":0,"roughnessFactor":0.82},"alphaMode":"BLEND"},{"pbrMetallicRoughness":{"baseColorFactor":[1,1,1,0.28],"metallicFactor":0,"roughnessFactor":0.82},"alphaMode":"BLEND"},{"pbrMetallicRoughness":{"baseColorFactor":[1,1,1,0.28],"metallicFactor":0,"roughnessFactor":0.82},"alphaMode":"BLEND"},{"pbrMetallicRoughness":{"baseColorFactor":[1,1,1,0.28],"metallicFactor":0,"roughnessFactor":0.82},"alphaMode":"BLEND"},{"pbrMetallicRoughness":{"metallicFactor":0,"roughnessFactor":0.88}},{"pbrMetallicRoughness":{"metallicFactor":0,"roughnessFactor":0.88}},{"pbrMetallicRoughness":{"metallicFactor":0,"roughnessFactor":0.88}}],"meshes":[{"primitives":[{"mode":1,"attributes":{"POSITION":0},"material":0}]},{"primitives":[{"mode":4,"attributes":{"POSITION":1,"NORMAL":2,"TEXCOORD_0":3},"indices":4,"material":1}]},{"primitives":[{"mode":4,"attributes":{"POSITION":1,"NORMAL":2,"TEXCOORD_0":3},"indices":4,"material":2}]},{"primitives":[{"mode":1,"attributes":{"POSITION":5},"material":3}]},{"primitives":[{"mode":4,"attributes":{"POSITION":6,"NORMAL":7,"TEXCOORD_0":8},"indices":9,"material":4}]},{"primitives":[{"mode":4,"attributes":{"POSITION":6,"NORMAL":7,"TEXCOORD_0":8},"indices":9,"material":5}]},{"primitives":[{"mode":1,"attributes":{"POSITION":10},"material":6}]},{"primitives":[{"mode":4,"attributes":{"POSITION":11,"NORMAL":12,"TEXCOORD_0":13},"indices":14,"material":7}]},{"primitives":[{"mode":4,"attributes":{"POSITION":11,"NORMAL":12,"TEXCOORD_0":13},"indices":14,"material":8}]},{"primitives":[{"mode":1,"attributes":{"POSITION":15},"material":9}]},{"primitives":[{"mode":4,"attributes":{"POSITION":16,"NORMAL":17,"TEXCOORD_0":18},"indices":19,"material":10}]},{"primitives":[{"mode":4,"attributes":{"POSITION":16,"NORMAL":17,"TEXCOORD_0":18},"indices":19,"material":11}]},{"primitives":[{"mode":3,"attributes":{"POSITION":20},"material":12}]},{"primitives":[{"mode":3,"attributes":{"POSITION":21},"material":13}]},{"primitives":[{"mode":3,"attributes":{"POSITION":22},"material":14}]},{"primitives":[{"mode":3,"attributes":{"POSITION":23},"material":15}]},{"primitives":[{"mode":4,"attributes":{"POSITION":24,"NORMAL":25,"TEXCOORD_0":26},"indices":27,"material":16}]},{"primitives":[{"mode":4,"attributes":{"POSITION":28,"NORMAL":29,"TEXCOORD_0":30},"indices":31,"material":17}]},{"primitives":[{"mode":4,"attributes":{"POSITION":32,"NORMAL":33,"TEXCOORD_0":34},"indices":35,"material":18}]}]}
